<?xml version="1.0" encoding="UTF-8" standalone="no"?>
<!DOCTYPE svg PUBLIC "-//W3C//DTD SVG 1.1//EN"
 "http://www.w3.org/Graphics/SVG/1.1/DTD/svg11.dtd">
<!-- Generated by graphviz version 2.34.0 (20131025.1624)
 -->
<!-- Title: models_diagram Pages: 1 -->
<svg width="345pt" height="658pt"
 viewBox="0.00 0.00 345.00 658.00" xmlns="http://www.w3.org/2000/svg" xmlns:xlink="http://www.w3.org/1999/xlink">
<g id="graph0" class="graph" transform="scale(1 1) rotate(0) translate(4 654)">
<title>models_diagram</title>
<polygon fill="white" stroke="white" points="-4,4 -4,-654 341,-654 341,4 -4,4"/>
<!-- Game -->
<g id="node1" class="node"><title>Game</title>
<path fill="none" stroke="black" d="M11.2705,-225.2C11.2705,-225.2 132.729,-225.2 132.729,-225.2 138.729,-225.2 144.729,-231.2 144.729,-237.2 144.729,-237.2 144.729,-346.8 144.729,-346.8 144.729,-352.8 138.729,-358.8 132.729,-358.8 132.729,-358.8 11.2705,-358.8 11.2705,-358.8 5.27051,-358.8 -0.729492,-352.8 -0.729492,-346.8 -0.729492,-346.8 -0.729492,-237.2 -0.729492,-237.2 -0.729492,-231.2 5.27051,-225.2 11.2705,-225.2"/>
<text text-anchor="middle" x="72" y="-340.8" font-family="Times,serif" font-size="14.00">Game</text>
<polyline fill="none" stroke="black" points="-0.729492,-334 144.729,-334 "/>
<text text-anchor="start" x="7.27051" y="-316" font-family="Times,serif" font-size="14.00">id :integer</text>
<text text-anchor="start" x="7.27051" y="-299.2" font-family="Times,serif" font-size="14.00">home_team_id :integer</text>
<text text-anchor="start" x="7.27051" y="-282.4" font-family="Times,serif" font-size="14.00">away_team_id :integer</text>
<text text-anchor="start" x="7.27051" y="-265.6" font-family="Times,serif" font-size="14.00">played_on :date</text>
<text text-anchor="start" x="7.27051" y="-248.8" font-family="Times,serif" font-size="14.00">created_at :datetime</text>
<text text-anchor="start" x="7.27051" y="-232" font-family="Times,serif" font-size="14.00">updated_at :datetime</text>
</g>
<!-- PlayerGameStat -->
<g id="node3" class="node"><title>PlayerGameStat</title>
<path fill="none" stroke="black" d="M124.495,-1.2C124.495,-1.2 233.505,-1.2 233.505,-1.2 239.505,-1.2 245.505,-7.2 245.505,-13.2 245.505,-13.2 245.505,-122.8 245.505,-122.8 245.505,-128.8 239.505,-134.8 233.505,-134.8 233.505,-134.8 124.495,-134.8 124.495,-134.8 118.495,-134.8 112.495,-128.8 112.495,-122.8 112.495,-122.8 112.495,-13.2 112.495,-13.2 112.495,-7.2 118.495,-1.2 124.495,-1.2"/>
<text text-anchor="middle" x="179" y="-116.8" font-family="Times,serif" font-size="14.00">PlayerGameStat</text>
<polyline fill="none" stroke="black" points="112.495,-110 245.505,-110 "/>
<text text-anchor="start" x="120.495" y="-92" font-family="Times,serif" font-size="14.00">id :integer</text>
<text text-anchor="start" x="120.495" y="-75.2" font-family="Times,serif" font-size="14.00">player_id :integer</text>
<text text-anchor="start" x="120.495" y="-58.4" font-family="Times,serif" font-size="14.00">game_id :integer</text>
<text text-anchor="start" x="120.495" y="-41.6" font-family="Times,serif" font-size="14.00">user_votes :integer</text>
<text text-anchor="start" x="120.495" y="-24.8" font-family="Times,serif" font-size="14.00">created_at :datetime</text>
<text text-anchor="start" x="120.495" y="-8" font-family="Times,serif" font-size="14.00">updated_at :datetime</text>
</g>
<!-- Game&#45;&gt;PlayerGameStat -->
<g id="edge1" class="edge"><title>Game&#45;&gt;PlayerGameStat</title>
<path fill="none" stroke="#5a34da" d="M107.387,-217.58C118.711,-194.085 131.263,-168.043 142.655,-144.408"/>
<ellipse fill="none" stroke="#5a34da" cx="105.551" cy="-221.39" rx="4.00002" ry="4.00002"/>
<polygon fill="#5a34da" stroke="#5a34da" points="142.782,-144.144 151.178,-137.089 144.953,-139.639 147.124,-135.135 147.124,-135.135 147.124,-135.135 144.953,-139.639 143.07,-133.181 142.782,-144.144 142.782,-144.144"/>
</g>
<!-- Player -->
<g id="node2" class="node"><title>Player</title>
<path fill="none" stroke="black" d="M174.891,-174.8C174.891,-174.8 325.109,-174.8 325.109,-174.8 331.109,-174.8 337.109,-180.8 337.109,-186.8 337.109,-186.8 337.109,-397.2 337.109,-397.2 337.109,-403.2 331.109,-409.2 325.109,-409.2 325.109,-409.2 174.891,-409.2 174.891,-409.2 168.891,-409.2 162.891,-403.2 162.891,-397.2 162.891,-397.2 162.891,-186.8 162.891,-186.8 162.891,-180.8 168.891,-174.8 174.891,-174.8"/>
<text text-anchor="middle" x="250" y="-391.2" font-family="Times,serif" font-size="14.00">Player</text>
<polyline fill="none" stroke="black" points="162.891,-384.4 337.109,-384.4 "/>
<text text-anchor="start" x="170.891" y="-366.4" font-family="Times,serif" font-size="14.00">id :integer</text>
<text text-anchor="start" x="170.891" y="-349.6" font-family="Times,serif" font-size="14.00">first_name :string</text>
<text text-anchor="start" x="170.891" y="-332.8" font-family="Times,serif" font-size="14.00">last_name :string</text>
<text text-anchor="start" x="170.891" y="-316" font-family="Times,serif" font-size="14.00">position :string</text>
<text text-anchor="start" x="170.891" y="-299.2" font-family="Times,serif" font-size="14.00">team_id :integer</text>
<text text-anchor="start" x="170.891" y="-282.4" font-family="Times,serif" font-size="14.00">image_file_name :string</text>
<text text-anchor="start" x="170.891" y="-265.6" font-family="Times,serif" font-size="14.00">image_content_type :string</text>
<text text-anchor="start" x="170.891" y="-248.8" font-family="Times,serif" font-size="14.00">image_file_size :integer</text>
<text text-anchor="start" x="170.891" y="-232" font-family="Times,serif" font-size="14.00">image_updated_at :datetime</text>
<text text-anchor="start" x="170.891" y="-215.2" font-family="Times,serif" font-size="14.00">injured :boolean</text>
<text text-anchor="start" x="170.891" y="-198.4" font-family="Times,serif" font-size="14.00">created_at :datetime</text>
<text text-anchor="start" x="170.891" y="-181.6" font-family="Times,serif" font-size="14.00">updated_at :datetime</text>
</g>
<!-- Player&#45;&gt;PlayerGameStat -->
<g id="edge2" class="edge"><title>Player&#45;&gt;PlayerGameStat</title>
<path fill="none" stroke="#272d61" d="M210.388,-167.144C207.964,-159.564 205.566,-152.065 203.239,-144.791"/>
<ellipse fill="none" stroke="#272d61" cx="211.618" cy="-170.989" rx="4.00001" ry="4.00001"/>
<polygon fill="#272d61" stroke="#272d61" points="203.162,-144.55 204.402,-133.654 201.639,-139.787 200.116,-135.025 200.116,-135.025 200.116,-135.025 201.639,-139.787 195.83,-136.396 203.162,-144.55 203.162,-144.55"/>
</g>
<!-- Team -->
<g id="node4" class="node"><title>Team</title>
<path fill="none" stroke="black" d="M92.5498,-465C92.5498,-465 233.45,-465 233.45,-465 239.45,-465 245.45,-471 245.45,-477 245.45,-477 245.45,-637 245.45,-637 245.45,-643 239.45,-649 233.45,-649 233.45,-649 92.5498,-649 92.5498,-649 86.5498,-649 80.5498,-643 80.5498,-637 80.5498,-637 80.5498,-477 80.5498,-477 80.5498,-471 86.5498,-465 92.5498,-465"/>
<text text-anchor="middle" x="163" y="-631" font-family="Times,serif" font-size="14.00">Team</text>
<polyline fill="none" stroke="black" points="80.5498,-624.2 245.45,-624.2 "/>
<text text-anchor="start" x="88.5498" y="-606.2" font-family="Times,serif" font-size="14.00">id :integer</text>
<text text-anchor="start" x="88.5498" y="-589.4" font-family="Times,serif" font-size="14.00">name :string</text>
<text text-anchor="start" x="88.5498" y="-572.6" font-family="Times,serif" font-size="14.00">location :string</text>
<text text-anchor="start" x="88.5498" y="-555.8" font-family="Times,serif" font-size="14.00">logo_file_name :string</text>
<text text-anchor="start" x="88.5498" y="-539" font-family="Times,serif" font-size="14.00">logo_content_type :string</text>
<text text-anchor="start" x="88.5498" y="-522.2" font-family="Times,serif" font-size="14.00">logo_file_size :integer</text>
<text text-anchor="start" x="88.5498" y="-505.4" font-family="Times,serif" font-size="14.00">logo_updated_at :datetime</text>
<text text-anchor="start" x="88.5498" y="-488.6" font-family="Times,serif" font-size="14.00">created_at :datetime</text>
<text text-anchor="start" x="88.5498" y="-471.8" font-family="Times,serif" font-size="14.00">updated_at :datetime</text>
</g>
<!-- Team&#45;&gt;Game -->
<g id="edge4" class="edge"><title>Team&#45;&gt;Game</title>
<path fill="none" stroke="#3c297b" d="M76.1178,-465.244C72.6376,-458.995 69.59,-452.564 67.1309,-446 58.1174,-421.939 56.6063,-394.231 58.2166,-369.061"/>
<ellipse fill="none" stroke="#3c297b" cx="78.3609" cy="-469.048" rx="4.00002" ry="4.00002"/>
<polygon fill="#3c297b" stroke="#3c297b" points="58.2389,-368.785 63.5337,-359.182 58.6436,-363.802 59.0484,-358.818 59.0484,-358.818 59.0484,-358.818 58.6436,-363.802 54.5632,-358.454 58.2389,-368.785 58.2389,-368.785"/>
<text text-anchor="middle" x="104.935" y="-431.4" font-family="Times,serif" font-size="14.00">home_games</text>
</g>
<!-- Team&#45;&gt;Game -->
<g id="edge5" class="edge"><title>Team&#45;&gt;Game</title>
<path fill="none" stroke="#318bd9" d="M149.077,-456.999C146.766,-447.1 144.091,-437.285 141,-428 134.289,-407.842 124.951,-386.974 115.309,-367.849"/>
<ellipse fill="none" stroke="#318bd9" cx="149.982" cy="-461.044" rx="4.00001" ry="4.00001"/>
<polygon fill="#318bd9" stroke="#318bd9" points="115.283,-367.799 114.717,-356.847 112.999,-363.351 110.714,-358.903 110.714,-358.903 110.714,-358.903 112.999,-363.351 106.711,-360.959 115.283,-367.799 115.283,-367.799"/>
<text text-anchor="middle" x="183.152" y="-431.4" font-family="Times,serif" font-size="14.00">away_games</text>
</g>
<!-- Team&#45;&gt;Player -->
<g id="edge3" class="edge"><title>Team&#45;&gt;Player</title>
<path fill="none" stroke="#23c1a7" d="M231.632,-457.142C233.224,-453.442 234.689,-449.722 236,-446 238.993,-437.501 241.44,-428.581 243.432,-419.498"/>
<ellipse fill="none" stroke="#23c1a7" cx="229.85" cy="-461.062" rx="4.00002" ry="4.00002"/>
<polygon fill="#23c1a7" stroke="#23c1a7" points="243.453,-419.396 249.833,-410.478 244.437,-414.494 245.421,-409.592 245.421,-409.592 245.421,-409.592 244.437,-414.494 241.009,-408.706 243.453,-419.396 243.453,-419.396"/>
</g>
</g>
</svg>
