<?xml version="1.0" encoding="UTF-8" standalone="no"?>
<!DOCTYPE svg PUBLIC "-//W3C//DTD SVG 1.1//EN"
 "http://www.w3.org/Graphics/SVG/1.1/DTD/svg11.dtd">
<!-- Generated by graphviz version 2.34.0 (20131025.1624)
 -->
<!-- Title: models_diagram Pages: 1 -->
<svg width="432pt" height="674pt"
 viewBox="0.00 0.00 432.00 674.00" xmlns="http://www.w3.org/2000/svg" xmlns:xlink="http://www.w3.org/1999/xlink">
<g id="graph0" class="graph" transform="scale(1 1) rotate(0) translate(4 670)">
<title>models_diagram</title>
<polygon fill="white" stroke="white" points="-4,4 -4,-670 428,-670 428,4 -4,4"/>
<!-- Game -->
<g id="node1" class="node"><title>Game</title>
<path fill="none" stroke="black" d="M11.2705,-241.2C11.2705,-241.2 132.729,-241.2 132.729,-241.2 138.729,-241.2 144.729,-247.2 144.729,-253.2 144.729,-253.2 144.729,-362.8 144.729,-362.8 144.729,-368.8 138.729,-374.8 132.729,-374.8 132.729,-374.8 11.2705,-374.8 11.2705,-374.8 5.27051,-374.8 -0.729492,-368.8 -0.729492,-362.8 -0.729492,-362.8 -0.729492,-253.2 -0.729492,-253.2 -0.729492,-247.2 5.27051,-241.2 11.2705,-241.2"/>
<text text-anchor="middle" x="72" y="-356.8" font-family="Times,serif" font-size="14.00">Game</text>
<polyline fill="none" stroke="black" points="-0.729492,-350 144.729,-350 "/>
<text text-anchor="start" x="7.27051" y="-332" font-family="Times,serif" font-size="14.00">id :integer</text>
<text text-anchor="start" x="7.27051" y="-315.2" font-family="Times,serif" font-size="14.00">home_team_id :integer</text>
<text text-anchor="start" x="7.27051" y="-298.4" font-family="Times,serif" font-size="14.00">away_team_id :integer</text>
<text text-anchor="start" x="7.27051" y="-281.6" font-family="Times,serif" font-size="14.00">played_on :date</text>
<text text-anchor="start" x="7.27051" y="-264.8" font-family="Times,serif" font-size="14.00">created_at :datetime</text>
<text text-anchor="start" x="7.27051" y="-248" font-family="Times,serif" font-size="14.00">updated_at :datetime</text>
</g>
<!-- Injury -->
<g id="node2" class="node"><title>Injury</title>
<path fill="none" stroke="black" d="M110.495,-1.2C110.495,-1.2 219.505,-1.2 219.505,-1.2 225.505,-1.2 231.505,-7.2 231.505,-13.2 231.505,-13.2 231.505,-122.8 231.505,-122.8 231.505,-128.8 225.505,-134.8 219.505,-134.8 219.505,-134.8 110.495,-134.8 110.495,-134.8 104.495,-134.8 98.4946,-128.8 98.4946,-122.8 98.4946,-122.8 98.4946,-13.2 98.4946,-13.2 98.4946,-7.2 104.495,-1.2 110.495,-1.2"/>
<text text-anchor="middle" x="165" y="-116.8" font-family="Times,serif" font-size="14.00">Injury</text>
<polyline fill="none" stroke="black" points="98.4946,-110 231.505,-110 "/>
<text text-anchor="start" x="106.495" y="-92" font-family="Times,serif" font-size="14.00">id :integer</text>
<text text-anchor="start" x="106.495" y="-75.2" font-family="Times,serif" font-size="14.00">player_id :integer</text>
<text text-anchor="start" x="106.495" y="-58.4" font-family="Times,serif" font-size="14.00">start :date</text>
<text text-anchor="start" x="106.495" y="-41.6" font-family="Times,serif" font-size="14.00">end :date</text>
<text text-anchor="start" x="106.495" y="-24.8" font-family="Times,serif" font-size="14.00">created_at :datetime</text>
<text text-anchor="start" x="106.495" y="-8" font-family="Times,serif" font-size="14.00">updated_at :datetime</text>
</g>
<!-- MatchUpVote -->
<g id="node3" class="node"><title>MatchUpVote</title>
<path fill="none" stroke="black" d="M261.498,-9.6C261.498,-9.6 412.502,-9.6 412.502,-9.6 418.502,-9.6 424.502,-15.6 424.502,-21.6 424.502,-21.6 424.502,-114.4 424.502,-114.4 424.502,-120.4 418.502,-126.4 412.502,-126.4 412.502,-126.4 261.498,-126.4 261.498,-126.4 255.498,-126.4 249.498,-120.4 249.498,-114.4 249.498,-114.4 249.498,-21.6 249.498,-21.6 249.498,-15.6 255.498,-9.6 261.498,-9.6"/>
<text text-anchor="middle" x="337" y="-108.4" font-family="Times,serif" font-size="14.00">MatchUpVote</text>
<polyline fill="none" stroke="black" points="249.498,-101.6 424.502,-101.6 "/>
<text text-anchor="start" x="257.498" y="-83.6" font-family="Times,serif" font-size="14.00">id :integer</text>
<text text-anchor="start" x="257.498" y="-66.8" font-family="Times,serif" font-size="14.00">chosen_player_id :integer</text>
<text text-anchor="start" x="257.498" y="-50" font-family="Times,serif" font-size="14.00">unchosen_player_id :integer</text>
<text text-anchor="start" x="257.498" y="-33.2" font-family="Times,serif" font-size="14.00">created_at :datetime</text>
<text text-anchor="start" x="257.498" y="-16.4" font-family="Times,serif" font-size="14.00">updated_at :datetime</text>
</g>
<!-- Player -->
<g id="node4" class="node"><title>Player</title>
<path fill="none" stroke="black" d="M177.891,-190.8C177.891,-190.8 328.109,-190.8 328.109,-190.8 334.109,-190.8 340.109,-196.8 340.109,-202.8 340.109,-202.8 340.109,-413.2 340.109,-413.2 340.109,-419.2 334.109,-425.2 328.109,-425.2 328.109,-425.2 177.891,-425.2 177.891,-425.2 171.891,-425.2 165.891,-419.2 165.891,-413.2 165.891,-413.2 165.891,-202.8 165.891,-202.8 165.891,-196.8 171.891,-190.8 177.891,-190.8"/>
<text text-anchor="middle" x="253" y="-407.2" font-family="Times,serif" font-size="14.00">Player</text>
<polyline fill="none" stroke="black" points="165.891,-400.4 340.109,-400.4 "/>
<text text-anchor="start" x="173.891" y="-382.4" font-family="Times,serif" font-size="14.00">id :integer</text>
<text text-anchor="start" x="173.891" y="-365.6" font-family="Times,serif" font-size="14.00">first_name :string</text>
<text text-anchor="start" x="173.891" y="-348.8" font-family="Times,serif" font-size="14.00">last_name :string</text>
<text text-anchor="start" x="173.891" y="-332" font-family="Times,serif" font-size="14.00">position :string</text>
<text text-anchor="start" x="173.891" y="-315.2" font-family="Times,serif" font-size="14.00">team_id :integer</text>
<text text-anchor="start" x="173.891" y="-298.4" font-family="Times,serif" font-size="14.00">image_file_name :string</text>
<text text-anchor="start" x="173.891" y="-281.6" font-family="Times,serif" font-size="14.00">image_content_type :string</text>
<text text-anchor="start" x="173.891" y="-264.8" font-family="Times,serif" font-size="14.00">image_file_size :integer</text>
<text text-anchor="start" x="173.891" y="-248" font-family="Times,serif" font-size="14.00">image_updated_at :datetime</text>
<text text-anchor="start" x="173.891" y="-231.2" font-family="Times,serif" font-size="14.00">injured :boolean</text>
<text text-anchor="start" x="173.891" y="-214.4" font-family="Times,serif" font-size="14.00">created_at :datetime</text>
<text text-anchor="start" x="173.891" y="-197.6" font-family="Times,serif" font-size="14.00">updated_at :datetime</text>
</g>
<!-- Player&#45;&gt;Injury -->
<g id="edge1" class="edge"><title>Player&#45;&gt;Injury</title>
<path fill="none" stroke="#335274" d="M207.197,-183.125C202.334,-169.971 197.499,-156.896 192.933,-144.545"/>
<ellipse fill="none" stroke="#335274" cx="208.644" cy="-187.037" rx="4.00001" ry="4.00001"/>
<polygon fill="#335274" stroke="#335274" points="192.8,-144.187 193.553,-133.247 191.066,-139.497 189.332,-134.808 189.332,-134.808 189.332,-134.808 191.066,-139.497 185.111,-136.368 192.8,-144.187 192.8,-144.187"/>
</g>
<!-- Player&#45;&gt;MatchUpVote -->
<g id="edge2" class="edge"><title>Player&#45;&gt;MatchUpVote</title>
<path fill="none" stroke="#bf9ef6" d="M246.043,-182.69C247.903,-172.794 250.592,-163.111 254.338,-154 257.083,-147.325 260.626,-140.884 264.698,-134.738"/>
<ellipse fill="none" stroke="#bf9ef6" cx="245.378" cy="-186.72" rx="4.00001" ry="4.00001"/>
<polygon fill="#bf9ef6" stroke="#bf9ef6" points="264.738,-134.681 274.214,-129.162 267.646,-130.613 270.553,-126.545 270.553,-126.545 270.553,-126.545 267.646,-130.613 266.892,-123.929 264.738,-134.681 264.738,-134.681"/>
<text text-anchor="middle" x="285.331" y="-157.4" font-family="Times,serif" font-size="14.00">won_votes</text>
</g>
<!-- Player&#45;&gt;MatchUpVote -->
<g id="edge3" class="edge"><title>Player&#45;&gt;MatchUpVote</title>
<path fill="none" stroke="#a1ba97" d="M311.188,-182.982C312.519,-179.299 313.794,-175.633 315,-172 318.758,-160.679 322.029,-148.44 324.817,-136.485"/>
<ellipse fill="none" stroke="#a1ba97" cx="309.77" cy="-186.808" rx="4.00001" ry="4.00001"/>
<polygon fill="#a1ba97" stroke="#a1ba97" points="324.86,-136.294 331.438,-127.52 325.953,-131.415 327.046,-126.536 327.046,-126.536 327.046,-126.536 325.953,-131.415 322.655,-125.552 324.86,-136.294 324.86,-136.294"/>
<text text-anchor="middle" x="348.39" y="-157.4" font-family="Times,serif" font-size="14.00">lost_votes</text>
</g>
<!-- Team -->
<g id="node5" class="node"><title>Team</title>
<path fill="none" stroke="black" d="M95.5498,-481C95.5498,-481 236.45,-481 236.45,-481 242.45,-481 248.45,-487 248.45,-493 248.45,-493 248.45,-653 248.45,-653 248.45,-659 242.45,-665 236.45,-665 236.45,-665 95.5498,-665 95.5498,-665 89.5498,-665 83.5498,-659 83.5498,-653 83.5498,-653 83.5498,-493 83.5498,-493 83.5498,-487 89.5498,-481 95.5498,-481"/>
<text text-anchor="middle" x="166" y="-647" font-family="Times,serif" font-size="14.00">Team</text>
<polyline fill="none" stroke="black" points="83.5498,-640.2 248.45,-640.2 "/>
<text text-anchor="start" x="91.5498" y="-622.2" font-family="Times,serif" font-size="14.00">id :integer</text>
<text text-anchor="start" x="91.5498" y="-605.4" font-family="Times,serif" font-size="14.00">name :string</text>
<text text-anchor="start" x="91.5498" y="-588.6" font-family="Times,serif" font-size="14.00">location :string</text>
<text text-anchor="start" x="91.5498" y="-571.8" font-family="Times,serif" font-size="14.00">logo_file_name :string</text>
<text text-anchor="start" x="91.5498" y="-555" font-family="Times,serif" font-size="14.00">logo_content_type :string</text>
<text text-anchor="start" x="91.5498" y="-538.2" font-family="Times,serif" font-size="14.00">logo_file_size :integer</text>
<text text-anchor="start" x="91.5498" y="-521.4" font-family="Times,serif" font-size="14.00">logo_updated_at :datetime</text>
<text text-anchor="start" x="91.5498" y="-504.6" font-family="Times,serif" font-size="14.00">created_at :datetime</text>
<text text-anchor="start" x="91.5498" y="-487.8" font-family="Times,serif" font-size="14.00">updated_at :datetime</text>
</g>
<!-- Team&#45;&gt;Game -->
<g id="edge5" class="edge"><title>Team&#45;&gt;Game</title>
<path fill="none" stroke="#5a1046" d="M79.1178,-481.244C75.6376,-474.995 72.59,-468.564 70.1309,-462 61.1213,-437.95 59.1833,-410.243 60.2607,-385.073"/>
<ellipse fill="none" stroke="#5a1046" cx="81.3609" cy="-485.048" rx="4.00002" ry="4.00002"/>
<polygon fill="#5a1046" stroke="#5a1046" points="60.276,-384.812 65.3592,-375.096 60.5715,-379.821 60.8671,-374.83 60.8671,-374.83 60.8671,-374.83 60.5715,-379.821 56.3749,-374.564 60.276,-384.812 60.276,-384.812"/>
<text text-anchor="middle" x="107.935" y="-447.4" font-family="Times,serif" font-size="14.00">home_games</text>
</g>
<!-- Team&#45;&gt;Game -->
<g id="edge6" class="edge"><title>Team&#45;&gt;Game</title>
<path fill="none" stroke="#41183b" d="M152.245,-472.942C149.9,-463.054 147.172,-453.257 144,-444 137.088,-423.826 127.43,-403.027 117.428,-383.981"/>
<ellipse fill="none" stroke="#41183b" cx="153.16" cy="-476.982" rx="4.00001" ry="4.00001"/>
<polygon fill="#41183b" stroke="#41183b" points="117.379,-383.889 116.627,-372.949 115.019,-379.481 112.659,-375.073 112.659,-375.073 112.659,-375.073 115.019,-379.481 108.692,-377.196 117.379,-383.889 117.379,-383.889"/>
<text text-anchor="middle" x="186.152" y="-447.4" font-family="Times,serif" font-size="14.00">away_games</text>
</g>
<!-- Team&#45;&gt;Player -->
<g id="edge4" class="edge"><title>Team&#45;&gt;Player</title>
<path fill="none" stroke="#76d9c1" d="M234.632,-473.142C236.224,-469.442 237.689,-465.722 239,-462 241.993,-453.501 244.44,-444.581 246.432,-435.498"/>
<ellipse fill="none" stroke="#76d9c1" cx="232.85" cy="-477.062" rx="4.00002" ry="4.00002"/>
<polygon fill="#76d9c1" stroke="#76d9c1" points="246.453,-435.396 252.833,-426.478 247.437,-430.494 248.421,-425.592 248.421,-425.592 248.421,-425.592 247.437,-430.494 244.009,-424.706 246.453,-435.396 246.453,-435.396"/>
</g>
</g>
</svg>
