<?xml version="1.0" encoding="UTF-8" standalone="no"?>
<!DOCTYPE svg PUBLIC "-//W3C//DTD SVG 1.1//EN"
 "http://www.w3.org/Graphics/SVG/1.1/DTD/svg11.dtd">
<!-- Generated by graphviz version 2.34.0 (20131025.1624)
 -->
<!-- Title: models_diagram Pages: 1 -->
<svg width="348pt" height="658pt"
 viewBox="0.00 0.00 348.00 658.00" xmlns="http://www.w3.org/2000/svg" xmlns:xlink="http://www.w3.org/1999/xlink">
<g id="graph0" class="graph" transform="scale(1 1) rotate(0) translate(4 654)">
<title>models_diagram</title>
<polygon fill="white" stroke="white" points="-4,4 -4,-654 344,-654 344,4 -4,4"/>
<!-- Game -->
<g id="node1" class="node"><title>Game</title>
<path fill="none" stroke="black" d="M11.2705,-225.2C11.2705,-225.2 132.729,-225.2 132.729,-225.2 138.729,-225.2 144.729,-231.2 144.729,-237.2 144.729,-237.2 144.729,-346.8 144.729,-346.8 144.729,-352.8 138.729,-358.8 132.729,-358.8 132.729,-358.8 11.2705,-358.8 11.2705,-358.8 5.27051,-358.8 -0.729492,-352.8 -0.729492,-346.8 -0.729492,-346.8 -0.729492,-237.2 -0.729492,-237.2 -0.729492,-231.2 5.27051,-225.2 11.2705,-225.2"/>
<text text-anchor="middle" x="72" y="-340.8" font-family="Times,serif" font-size="14.00">Game</text>
<polyline fill="none" stroke="black" points="-0.729492,-334 144.729,-334 "/>
<text text-anchor="start" x="7.27051" y="-316" font-family="Times,serif" font-size="14.00">id :integer</text>
<text text-anchor="start" x="7.27051" y="-299.2" font-family="Times,serif" font-size="14.00">home_team_id :integer</text>
<text text-anchor="start" x="7.27051" y="-282.4" font-family="Times,serif" font-size="14.00">away_team_id :integer</text>
<text text-anchor="start" x="7.27051" y="-265.6" font-family="Times,serif" font-size="14.00">played_on :date</text>
<text text-anchor="start" x="7.27051" y="-248.8" font-family="Times,serif" font-size="14.00">created_at :datetime</text>
<text text-anchor="start" x="7.27051" y="-232" font-family="Times,serif" font-size="14.00">updated_at :datetime</text>
</g>
<!-- Injury -->
<g id="node2" class="node"><title>Injury</title>
<path fill="none" stroke="black" d="M198.495,-1.2C198.495,-1.2 307.505,-1.2 307.505,-1.2 313.505,-1.2 319.505,-7.2 319.505,-13.2 319.505,-13.2 319.505,-122.8 319.505,-122.8 319.505,-128.8 313.505,-134.8 307.505,-134.8 307.505,-134.8 198.495,-134.8 198.495,-134.8 192.495,-134.8 186.495,-128.8 186.495,-122.8 186.495,-122.8 186.495,-13.2 186.495,-13.2 186.495,-7.2 192.495,-1.2 198.495,-1.2"/>
<text text-anchor="middle" x="253" y="-116.8" font-family="Times,serif" font-size="14.00">Injury</text>
<polyline fill="none" stroke="black" points="186.495,-110 319.505,-110 "/>
<text text-anchor="start" x="194.495" y="-92" font-family="Times,serif" font-size="14.00">id :integer</text>
<text text-anchor="start" x="194.495" y="-75.2" font-family="Times,serif" font-size="14.00">player_id :integer</text>
<text text-anchor="start" x="194.495" y="-58.4" font-family="Times,serif" font-size="14.00">start :date</text>
<text text-anchor="start" x="194.495" y="-41.6" font-family="Times,serif" font-size="14.00">end :date</text>
<text text-anchor="start" x="194.495" y="-24.8" font-family="Times,serif" font-size="14.00">created_at :datetime</text>
<text text-anchor="start" x="194.495" y="-8" font-family="Times,serif" font-size="14.00">updated_at :datetime</text>
</g>
<!-- Player -->
<g id="node3" class="node"><title>Player</title>
<path fill="none" stroke="black" d="M177.891,-174.8C177.891,-174.8 328.109,-174.8 328.109,-174.8 334.109,-174.8 340.109,-180.8 340.109,-186.8 340.109,-186.8 340.109,-397.2 340.109,-397.2 340.109,-403.2 334.109,-409.2 328.109,-409.2 328.109,-409.2 177.891,-409.2 177.891,-409.2 171.891,-409.2 165.891,-403.2 165.891,-397.2 165.891,-397.2 165.891,-186.8 165.891,-186.8 165.891,-180.8 171.891,-174.8 177.891,-174.8"/>
<text text-anchor="middle" x="253" y="-391.2" font-family="Times,serif" font-size="14.00">Player</text>
<polyline fill="none" stroke="black" points="165.891,-384.4 340.109,-384.4 "/>
<text text-anchor="start" x="173.891" y="-366.4" font-family="Times,serif" font-size="14.00">id :integer</text>
<text text-anchor="start" x="173.891" y="-349.6" font-family="Times,serif" font-size="14.00">first_name :string</text>
<text text-anchor="start" x="173.891" y="-332.8" font-family="Times,serif" font-size="14.00">last_name :string</text>
<text text-anchor="start" x="173.891" y="-316" font-family="Times,serif" font-size="14.00">position :string</text>
<text text-anchor="start" x="173.891" y="-299.2" font-family="Times,serif" font-size="14.00">team_id :integer</text>
<text text-anchor="start" x="173.891" y="-282.4" font-family="Times,serif" font-size="14.00">image_file_name :string</text>
<text text-anchor="start" x="173.891" y="-265.6" font-family="Times,serif" font-size="14.00">image_content_type :string</text>
<text text-anchor="start" x="173.891" y="-248.8" font-family="Times,serif" font-size="14.00">image_file_size :integer</text>
<text text-anchor="start" x="173.891" y="-232" font-family="Times,serif" font-size="14.00">image_updated_at :datetime</text>
<text text-anchor="start" x="173.891" y="-215.2" font-family="Times,serif" font-size="14.00">injured :boolean</text>
<text text-anchor="start" x="173.891" y="-198.4" font-family="Times,serif" font-size="14.00">created_at :datetime</text>
<text text-anchor="start" x="173.891" y="-181.6" font-family="Times,serif" font-size="14.00">updated_at :datetime</text>
</g>
<!-- Player&#45;&gt;Injury -->
<g id="edge1" class="edge"><title>Player&#45;&gt;Injury</title>
<path fill="none" stroke="#ba2ddd" d="M253,-166.508C253,-159.247 253,-152.064 253,-145.087"/>
<ellipse fill="none" stroke="#ba2ddd" cx="253" cy="-170.799" rx="4" ry="4"/>
<polygon fill="#ba2ddd" stroke="#ba2ddd" points="253,-145.025 257.5,-135.025 253,-140.025 253,-135.025 253,-135.025 253,-135.025 253,-140.025 248.5,-135.025 253,-145.025 253,-145.025"/>
</g>
<!-- Team -->
<g id="node4" class="node"><title>Team</title>
<path fill="none" stroke="black" d="M95.5498,-465C95.5498,-465 236.45,-465 236.45,-465 242.45,-465 248.45,-471 248.45,-477 248.45,-477 248.45,-637 248.45,-637 248.45,-643 242.45,-649 236.45,-649 236.45,-649 95.5498,-649 95.5498,-649 89.5498,-649 83.5498,-643 83.5498,-637 83.5498,-637 83.5498,-477 83.5498,-477 83.5498,-471 89.5498,-465 95.5498,-465"/>
<text text-anchor="middle" x="166" y="-631" font-family="Times,serif" font-size="14.00">Team</text>
<polyline fill="none" stroke="black" points="83.5498,-624.2 248.45,-624.2 "/>
<text text-anchor="start" x="91.5498" y="-606.2" font-family="Times,serif" font-size="14.00">id :integer</text>
<text text-anchor="start" x="91.5498" y="-589.4" font-family="Times,serif" font-size="14.00">name :string</text>
<text text-anchor="start" x="91.5498" y="-572.6" font-family="Times,serif" font-size="14.00">location :string</text>
<text text-anchor="start" x="91.5498" y="-555.8" font-family="Times,serif" font-size="14.00">logo_file_name :string</text>
<text text-anchor="start" x="91.5498" y="-539" font-family="Times,serif" font-size="14.00">logo_content_type :string</text>
<text text-anchor="start" x="91.5498" y="-522.2" font-family="Times,serif" font-size="14.00">logo_file_size :integer</text>
<text text-anchor="start" x="91.5498" y="-505.4" font-family="Times,serif" font-size="14.00">logo_updated_at :datetime</text>
<text text-anchor="start" x="91.5498" y="-488.6" font-family="Times,serif" font-size="14.00">created_at :datetime</text>
<text text-anchor="start" x="91.5498" y="-471.8" font-family="Times,serif" font-size="14.00">updated_at :datetime</text>
</g>
<!-- Team&#45;&gt;Game -->
<g id="edge3" class="edge"><title>Team&#45;&gt;Game</title>
<path fill="none" stroke="#bc294c" d="M79.1178,-465.244C75.6376,-458.995 72.59,-452.564 70.1309,-446 61.1213,-421.95 59.1833,-394.243 60.2607,-369.073"/>
<ellipse fill="none" stroke="#bc294c" cx="81.3609" cy="-469.048" rx="4.00002" ry="4.00002"/>
<polygon fill="#bc294c" stroke="#bc294c" points="60.276,-368.812 65.3592,-359.096 60.5715,-363.821 60.8671,-358.83 60.8671,-358.83 60.8671,-358.83 60.5715,-363.821 56.3749,-358.564 60.276,-368.812 60.276,-368.812"/>
<text text-anchor="middle" x="107.935" y="-431.4" font-family="Times,serif" font-size="14.00">home_games</text>
</g>
<!-- Team&#45;&gt;Game -->
<g id="edge4" class="edge"><title>Team&#45;&gt;Game</title>
<path fill="none" stroke="#8cd919" d="M152.245,-456.942C149.9,-447.054 147.172,-437.257 144,-428 137.088,-407.826 127.43,-387.027 117.428,-367.981"/>
<ellipse fill="none" stroke="#8cd919" cx="153.16" cy="-460.982" rx="4.00001" ry="4.00001"/>
<polygon fill="#8cd919" stroke="#8cd919" points="117.379,-367.889 116.627,-356.949 115.019,-363.481 112.659,-359.073 112.659,-359.073 112.659,-359.073 115.019,-363.481 108.692,-361.196 117.379,-367.889 117.379,-367.889"/>
<text text-anchor="middle" x="186.152" y="-431.4" font-family="Times,serif" font-size="14.00">away_games</text>
</g>
<!-- Team&#45;&gt;Player -->
<g id="edge2" class="edge"><title>Team&#45;&gt;Player</title>
<path fill="none" stroke="#670590" d="M234.632,-457.142C236.224,-453.442 237.689,-449.722 239,-446 241.993,-437.501 244.44,-428.581 246.432,-419.498"/>
<ellipse fill="none" stroke="#670590" cx="232.85" cy="-461.062" rx="4.00002" ry="4.00002"/>
<polygon fill="#670590" stroke="#670590" points="246.453,-419.396 252.833,-410.478 247.437,-414.494 248.421,-409.592 248.421,-409.592 248.421,-409.592 247.437,-414.494 244.009,-408.706 246.453,-419.396 246.453,-419.396"/>
</g>
</g>
</svg>
